<svg version="1.1" id="Layer_1" xmlns="http://www.w3.org/2000/svg" xmlns:xlink="http://www.w3.org/1999/xlink" x="0px" y="0px"
	 width="100%" viewBox="0 0 665 176" enable-background="new 0 0 665 176" xml:space="preserve">
<path fill="none" opacity="1.000000" stroke="#000000" stroke-linecap="round" stroke-linejoin="round" stroke-width="9.000000"
	d="
M393.500000,69.500000 
	C394.419373,65.145462 392.099182,62.754494 388.506897,60.986004 
	C372.296783,53.005730 352.042725,61.705215 348.548431,80.009247 
	C345.300659,97.021843 352.737213,109.933273 368.514069,114.955780 
	C377.349518,117.768501 385.546478,115.785423 392.977661,110.468788 
	C394.301422,109.521713 395.126190,107.680161 396.534302,107.080574 
	C404.454620,103.708115 402.807587,96.700890 402.919281,90.498543 
	C402.981018,87.070068 399.760986,87.218529 397.495453,87.069016 
	C393.678711,86.817154 389.833344,87.000000 386.000000,87.000000 
"/>
<path fill="none" opacity="1.000000" stroke="#000000" stroke-linecap="round" stroke-linejoin="round" stroke-width="4.000000"
	d="
M49.000000,138.500000 
	C84.000793,138.500000 119.001587,138.500000 154.193375,138.500000 
	C153.540146,134.149536 151.851822,132.374542 147.499405,132.400696 
	C116.500519,132.586960 85.499619,132.573868 54.500443,132.414276 
	C50.226864,132.392288 48.238926,133.700043 48.500000,138.000000 
"/>
<path fill="none" opacity="1.000000" stroke="#000000" stroke-linecap="round" stroke-linejoin="round" stroke-width="8.000000"
	d="
M546.000000,97.500000 
	C556.513306,97.043198 567.150208,98.532776 577.820312,96.461250 
	C576.498535,92.500481 576.719116,89.351631 574.650391,86.394791 
	C570.655884,80.685524 565.165527,78.886284 559.019470,79.655754 
	C552.366943,80.488632 546.486877,83.834854 545.178650,91.032471 
	C544.269287,96.035278 543.706421,101.407722 545.522583,106.491936 
	C546.845459,110.195358 549.569031,112.798698 553.017273,114.464287 
	C559.903687,117.790611 566.634338,117.513168 573.000000,113.000000 
"/>
<path fill="none" opacity="1.000000" stroke="#000000" stroke-linecap="round" stroke-linejoin="round" stroke-width="8.000000"
	d="
M298.500000,112.000000 
	C301.484131,112.153458 303.888489,113.915779 306.473907,115.059013 
	C319.702637,120.908524 330.993652,109.332184 330.435638,97.503036 
	C329.980957,87.863480 324.522369,82.219765 316.018066,79.932846 
	C311.696716,78.770767 308.052094,80.431511 304.570648,82.143654 
	C302.409332,83.206573 300.400543,84.274712 298.000000,84.500000 
"/>
<path fill="none" opacity="1.000000" stroke="#000000" stroke-linecap="round" stroke-linejoin="round" stroke-width="8.000000"
	d="
M423.000000,98.000000 
	C431.149628,96.998428 439.333405,97.660950 447.500305,97.517693 
	C454.476654,97.395317 456.380768,94.699966 453.475342,88.511581 
	C450.523315,82.223991 442.437164,78.105988 435.008026,80.031013 
	C424.584869,82.731842 421.049896,89.671753 422.006989,96.999084 
	C422.375946,99.823616 421.408844,102.641815 422.450104,105.518059 
	C425.353210,113.537270 435.534943,118.979416 444.511169,115.529060 
	C448.031769,114.175797 451.685883,113.184517 455.500000,113.000000 
"/>
<path fill="none" opacity="1.000000" stroke="#000000" stroke-linecap="round" stroke-linejoin="round" stroke-width="10.000000"
	d="
M503.500000,114.500000 
	C503.309143,107.333893 503.640076,100.172226 503.104736,92.992188 
	C502.694733,87.492928 501.001587,82.669228 495.931244,80.674797 
	C490.455139,78.520744 484.627747,79.127228 480.043427,83.545074 
	C478.130127,85.388878 476.363342,87.009483 473.500000,86.500000 
"/>
<path fill="none" opacity="1.000000" stroke="#000000" stroke-linecap="round" stroke-linejoin="round" stroke-width="11.000000"
	d="
M210.000000,61.000000 
	C210.000000,78.666664 210.000000,96.333336 210.000000,114.000000 
"/>
<path fill="none" opacity="1.000000" stroke="#000000" stroke-linecap="round" stroke-linejoin="round" stroke-width="10.000000"
	d="
M525.500000,81.500000 
	C525.500000,92.500000 525.500000,103.500000 525.500000,114.500000 
"/>
<path fill="none" opacity="1.000000" stroke="#000000" stroke-linecap="round" stroke-linejoin="round" stroke-width="10.000000"
	d="
M276.500000,81.500000 
	C276.500000,92.500000 276.500000,103.500000 276.500000,114.500000 
"/>
<path fill="none" opacity="1.000000" stroke="#000000" stroke-linecap="round" stroke-linejoin="round" stroke-width="3.000000"
	d="
M87.000000,97.000000 
	C96.500000,97.000000 106.000000,97.000000 115.500000,97.000000 
"/>
<path fill="none" opacity="1.000000" stroke="#000000" stroke-linecap="round" stroke-linejoin="round" stroke-width="10.000000"
	d="
M244.500000,81.500000 
	C245.541473,84.281876 245.540527,87.047012 245.068695,90.010933 
	C243.776672,98.126961 244.785385,106.335754 244.500000,114.500000 
"/>
<path fill="none" opacity="1.000000" stroke="#000000" stroke-linecap="round" stroke-linejoin="round" stroke-width="10.000000"
	d="
M472.500000,81.500000 
	C472.500000,92.500000 472.500000,103.500000 472.500000,114.500000 
"/>
<path fill="none" opacity="1.000000" stroke="#000000" stroke-linecap="round" stroke-linejoin="round" stroke-width="10.000000"
	d="
M296.500000,81.500000 
	C299.245758,86.107864 295.498718,90.423546 295.791260,95.013306 
	C295.945831,97.438087 295.545502,100.052155 296.043640,102.491089 
	C298.355835,113.811569 295.566193,125.177948 296.500000,136.500000 
"/>
<path fill="none" opacity="1.000000" stroke="#000000" stroke-linecap="round" stroke-linejoin="round" stroke-width="3.000000"
	d="
M109.500000,125.500000 
	C109.500000,121.000000 109.645821,116.494102 109.464233,112.001442 
	C109.220360,105.967911 105.925850,102.411560 101.000000,102.500008 
	C96.459625,102.581520 93.023689,106.863434 93.003288,112.500015 
	C92.987000,116.999954 93.000000,121.500000 93.000000,126.000000 
"/>
<path fill="none" opacity="1.000000" stroke="#000000" stroke-linecap="round" stroke-linejoin="round" stroke-width="3.000000"
	d="
M112.500000,86.000000 
	C113.819603,78.980713 111.057259,71.392067 105.448555,68.087311 
	C102.918808,66.596733 99.356598,66.252037 97.105820,68.127022 
	C93.214340,71.368790 89.316780,75.222038 90.101250,80.986221 
	C90.561813,84.370384 88.249634,87.219261 89.000000,90.500000 
"/>
<path fill="none" opacity="1.000000" stroke="#000000" stroke-linecap="round" stroke-linejoin="round" stroke-width="3.000000"
	d="
M113.500008,90.500000 
	C113.666710,89.500008 113.833412,88.500015 114.000153,87.498535 
	C106.435516,82.787971 98.531204,83.400024 90.500000,86.000000 
"/>
<path fill="none" opacity="1.000000" stroke="#000000" stroke-linecap="round" stroke-linejoin="round" stroke-width="9.000000"
	d="
M231.000000,59.000000 
	C223.999054,59.486759 216.840591,59.900368 210.000000,59.900368 
	C203.159409,59.900368 196.000946,59.486759 189.000000,59.000000 
"/>
<path fill="none" opacity="1.000000" stroke="#000000" stroke-linecap="round" stroke-linejoin="round" stroke-width="3.000000"
	d="
M111.500000,92.000000 
	C104.833336,93.647659 98.166664,93.647659 91.500000,92.000000 
"/>
<path fill="none" opacity="1.000000" stroke="#000000" stroke-linecap="round" stroke-linejoin="round" stroke-width="3.000000"
	d="
M85.000000,102.000000 
	C77.333336,102.000000 69.666664,102.000000 62.000000,102.000000 
"/>
<path fill="none" opacity="1.000000" stroke="#000000" stroke-linecap="round" stroke-linejoin="round" stroke-width="3.000000"
	d="
M134.000000,101.500000 
	C130.204575,102.538445 126.330307,101.762978 122.499947,101.999123 
	C120.661613,102.112465 118.771812,101.656639 117.000000,102.500000 
"/>
<path fill="none" opacity="1.000000" stroke="#000000" stroke-linecap="round" stroke-linejoin="round" stroke-width="3.000000"
	d="
M129.000000,113.000000 
	C129.000000,112.833336 128.999893,112.666664 129.000015,112.500000 
	C129.002106,109.703987 129.553131,105.873764 125.518517,106.217400 
	C122.124954,106.506416 121.914162,109.987022 122.500000,113.000000 
"/>
<path fill="none" opacity="1.000000" stroke="#000000" stroke-linecap="round" stroke-linejoin="round" stroke-width="4.000000"
	d="
M150.500000,132.000000 
	C150.227295,127.928337 148.201385,126.381386 143.999237,126.422638 
	C125.667671,126.602585 107.328873,126.257668 89.001762,126.595474 
	C78.825294,126.783043 68.662231,126.648849 58.502106,126.410309 
	C54.230854,126.310036 51.968048,127.568298 52.000000,132.000000 
"/>
<path fill="none" opacity="1.000000" stroke="#000000" stroke-linecap="round" stroke-linejoin="round" stroke-width="3.000000"
	d="
M80.000000,113.000000 
	C80.000000,112.166664 79.871956,111.309189 80.023720,110.504471 
	C80.502937,107.963364 79.250633,106.272415 76.991951,106.116722 
	C74.757668,105.962708 74.168892,107.837601 73.847336,109.977051 
	C73.698792,110.965424 73.745049,112.013062 73.500000,113.000000 
"/>
<path fill="none" opacity="1.000000" stroke="#000000" stroke-linecap="round" stroke-linejoin="round" stroke-width="7.000000"
	d="
M263.000000,79.250000 
	C258.383118,79.648537 253.952850,80.300201 250.400574,83.901939 
	C249.486954,84.828262 247.779358,85.838066 246.000000,85.500000 
"/>
<path fill="none" opacity="1.000000" stroke="#000000" stroke-linecap="round" stroke-linejoin="round" stroke-width="3.000000"
	d="
M139.000000,90.500000 
	C141.499451,91.750275 142.118210,93.742989 142.068817,96.501236 
	C141.892776,106.331413 142.000000,116.166664 142.000000,126.000000 
"/>
<path fill="none" opacity="1.000000" stroke="#000000" stroke-linecap="round" stroke-linejoin="round" stroke-width="3.000000"
	d="
M64.000000,82.500000 
	C64.000000,85.167671 64.000000,87.835350 64.000000,90.526863 
	C61.192814,90.883659 60.947659,92.972649 60.967300,95.500252 
	C61.046299,105.666306 61.000000,115.833336 61.000000,126.000000 
"/>
<path fill="none" opacity="1.000000" stroke="#000000" stroke-linecap="round" stroke-linejoin="round" stroke-width="3.000000"
	d="
M85.500000,98.500000 
	C86.553886,105.980286 85.558487,113.506042 85.998711,121.000076 
	C86.097046,122.673935 85.698730,124.396797 86.500000,126.000000 
"/>
<path fill="none" opacity="1.000000" stroke="#000000" stroke-linecap="round" stroke-linejoin="round" stroke-width="3.000000"
	d="
M136.000000,92.000000 
	C133.675079,94.511284 134.641052,97.903740 134.751358,100.489273 
	C135.114471,109.000824 134.630264,117.503983 135.000000,126.000000 
"/>
<path fill="none" opacity="1.000000" stroke="#000000" stroke-linecap="round" stroke-linejoin="round" stroke-width="3.000000"
	d="
M65.500000,91.000000 
	C69.212067,92.171021 68.612869,95.993988 68.249245,97.953468 
	C67.243652,103.372360 68.596840,108.680107 68.000000,114.000000 
"/>
<path fill="none" opacity="1.000000" stroke="#000000" stroke-linecap="round" stroke-linejoin="round" stroke-width="3.000000"
	d="
M116.500000,98.500000 
	C115.683128,107.654846 116.101311,116.832146 116.000000,126.000000 
"/>
<path fill="none" opacity="1.000000" stroke="#000000" stroke-linecap="round" stroke-linejoin="round" stroke-width="3.000000"
	d="
M67.500000,115.500000 
	C68.191978,119.000000 68.365791,122.500000 67.500000,126.000000 
"/>
<path fill="none" opacity="1.000000" stroke="#000000" stroke-linecap="round" stroke-linejoin="round" stroke-width="3.000000"
	d="
M125.500000,88.500000 
	C126.117439,90.631989 124.772133,92.914963 125.948364,94.913239 
	C123.054428,96.673500 120.359238,99.298447 116.500000,97.500000 
"/>
<path fill="none" opacity="1.000000" stroke="#000000" stroke-linecap="round" stroke-linejoin="round" stroke-width="3.000000"
	d="
M73.500000,126.000000 
	C73.405792,123.767555 73.576340,121.575844 74.500153,119.500023 
	C80.000000,119.167557 80.000000,119.167557 80.000000,126.000000 
"/>
<path fill="none" opacity="1.000000" stroke="#000000" stroke-linecap="round" stroke-linejoin="round" stroke-width="3.000000"
	d="
M129.000000,126.000000 
	C129.000000,125.666664 128.996948,125.333305 129.000488,125.000008 
	C129.024231,122.769539 129.560120,120.212578 126.956680,119.101509 
	C126.077881,118.726471 124.516869,118.407249 123.504448,119.504112 
	C121.721687,121.435562 121.565529,123.638290 122.500000,126.000000 
"/>
<path fill="none" opacity="1.000000" stroke="#000000" stroke-linecap="round" stroke-linejoin="round" stroke-width="4.000000"
	d="
M138.500000,82.500000 
	C137.426926,85.232201 140.306870,88.661995 137.000000,91.000000 
"/>
<path fill="none" opacity="1.000000" stroke="#000000" stroke-linecap="round" stroke-linejoin="round" stroke-width="3.000000"
	d="
M75.500000,96.000000 
	C73.741859,97.994385 71.389755,98.058365 69.000000,98.000000 
"/>
<path fill="none" opacity="1.000000" stroke="#000000" stroke-linecap="round" stroke-linejoin="round" stroke-width="3.000000"
	d="
M141.000000,101.500000 
	C139.061188,102.400932 137.001053,101.846054 135.000000,102.000000 
"/>
<path fill="none" opacity="1.000000" stroke="#000000" stroke-linecap="round" stroke-linejoin="round" stroke-width="3.000000"
	d="
M62.000000,115.000000 
	C68.830170,114.601753 75.602509,112.999588 82.499123,114.006027 
	C83.338898,114.128571 84.166664,114.333336 85.000000,114.500000 
"/>
<path fill="none" opacity="1.000000" stroke="#000000" stroke-linecap="round" stroke-linejoin="round" stroke-width="3.000000"
	d="
M117.000000,114.500000 
	C122.666664,113.315933 128.333328,113.528450 134.000000,114.500000 
"/>
<path fill="none" opacity="1.000000" stroke="#000000" stroke-linecap="round" stroke-linejoin="round" stroke-width="3.000000"
	d="
M141.000000,114.500000 
	C139.061188,115.400932 137.001053,114.846054 135.000000,115.000000 
"/>
<path fill="none" opacity="1.000000" stroke="#000000" stroke-linecap="round" stroke-linejoin="round" stroke-width="3.000000"
	d="
M77.000000,88.500000 
	C77.000000,90.500000 77.000000,92.500000 77.000000,94.500000 
"/>
<path fill="none" opacity="1.000000" stroke="#000000" stroke-linecap="round" stroke-linejoin="round" stroke-width="3.000000"
	d="
M134.000000,98.000000 
	C132.134003,97.846321 130.112518,98.547829 128.500000,97.000000 
"/>
<path fill="none" opacity="1.000000" stroke="#000000" stroke-linecap="round" stroke-linejoin="round" stroke-width="3.000000"
	d="
M101.500000,56.500000 
	C101.333336,59.833332 101.166664,63.166668 101.000000,66.500000 
"/>
</svg>