<?xml version="1.0" standalone="no"?>
<!DOCTYPE svg PUBLIC "-//W3C//DTD SVG 20010904//EN"
 "http://www.w3.org/TR/2001/REC-SVG-20010904/DTD/svg10.dtd">
<svg version="1.0" xmlns="http://www.w3.org/2000/svg"
 width="300.000000pt" height="79.000000pt" viewBox="0 0 300.000000 79.000000"
 preserveAspectRatio="xMidYMid meet">
<metadata>
Created by potrace 1.10, written by Peter Selinger 2001-2011
</metadata>
<g transform="translate(0.000000,79.000000) scale(0.100000,-0.100000)"
fill="#000000" stroke="none">
<path d="M450 543 c-1 -7 -3 -17 -4 -21 0 -5 -9 -16 -19 -26 -25 -25 -34 -45
-42 -93 -7 -47 -20 -55 -31 -21 l-7 22 -17 -21 c-17 -21 -17 -21 -30 15 l-13
35 -13 -24 c-8 -14 -13 -56 -14 -101 0 -57 -4 -78 -13 -78 -7 0 -21 -13 -30
-30 l-18 -29 251 -3 c166 -2 250 0 250 7 0 19 -31 55 -46 55 -12 0 -15 14 -14
73 3 111 -21 172 -36 92 -7 -40 -19 -45 -30 -13 l-7 22 -17 -21 c-17 -21 -17
-21 -28 11 -7 18 -12 40 -12 48 0 9 -11 29 -24 45 -13 15 -26 37 -29 48 -2 11
-6 14 -7 8z m38 -88 c16 -36 17 -35 -33 -35 -37 0 -45 3 -45 18 0 45 60 58 78
17z m21 -167 l-1 -63 -9 49 c-8 49 -20 66 -49 66 -27 0 -40 -22 -40 -67 0 -24
-4 -43 -10 -43 -6 0 -10 27 -10 60 l0 60 60 0 60 0 -1 -62z m-129 22 c0 -11
-4 -20 -10 -20 -5 0 -10 7 -10 15 0 21 -27 19 -39 -2 -9 -16 -10 -16 -11 5 0
19 5 22 35 22 28 0 35 -4 35 -20z m84 14 c11 -4 16 -19 16 -50 0 -42 -1 -44
-30 -44 -28 0 -30 2 -30 38 0 21 5 43 12 50 14 14 12 14 32 6z m136 -14 c0
-11 -4 -20 -10 -20 -5 0 -10 7 -10 15 0 21 -27 19 -39 -2 -9 -16 -10 -16 -11
5 0 19 5 22 35 22 28 0 35 -4 35 -20z m-220 -55 c0 -30 -16 -33 -23 -5 -7 27
-25 25 -37 -2 -8 -22 -9 -22 -9 5 -1 24 2 27 34 27 31 0 35 -3 35 -25z m220 0
c0 -30 -16 -33 -23 -5 -7 27 -25 25 -37 -2 -8 -22 -9 -22 -9 5 -1 24 2 27 34
27 31 0 35 -3 35 -25z m-42 -42 c-60 -2 -156 -2 -215 0 -60 1 -11 3 107 3 118
0 167 -2 108 -3z m9 -30 c-64 -2 -170 -2 -235 0 -64 1 -11 3 118 3 129 0 182
-2 117 -3z"/>
<path d="M830 530 c0 -17 7 -20 45 -20 l45 0 0 -125 c0 -123 0 -125 23 -125
22 0 22 1 19 125 l-4 125 51 0 c44 0 51 3 51 20 0 19 -7 20 -115 20 -108 0
-115 -1 -115 -20z"/>
<path d="M1624 536 c-49 -22 -79 -72 -79 -133 0 -55 18 -90 67 -126 33 -24
117 -26 153 -3 30 20 39 20 31 1 -4 -11 1 -15 19 -15 25 0 25 2 25 80 l0 80
-60 0 c-54 0 -60 -2 -60 -20 0 -18 4 -20 35 -14 29 5 35 3 35 -11 0 -41 -52
-85 -100 -85 -55 0 -102 53 -102 115 0 92 100 145 165 87 16 -14 19 -14 34 0
15 15 13 18 -18 37 -39 24 -99 27 -145 7z"/>
<path d="M1227 534 c-16 -16 -6 -35 16 -32 12 2 22 10 22 18 0 16 -26 25 -38
14z"/>
<path d="M2345 530 c-4 -7 -3 -16 3 -22 14 -14 45 -2 40 15 -6 16 -34 21 -43
7z"/>
<path d="M1080 355 c0 -88 1 -95 20 -95 18 0 20 7 20 64 0 69 14 96 51 96 10
0 19 7 19 15 0 18 -41 20 -58 3 -9 -9 -12 -9 -12 0 0 7 -9 12 -20 12 -19 0
-20 -7 -20 -95z"/>
<path d="M1220 355 c0 -88 1 -95 20 -95 19 0 20 7 20 95 0 88 -1 95 -20 95
-19 0 -20 -7 -20 -95z"/>
<path d="M1310 304 l0 -144 24 0 c24 0 24 2 19 55 -6 60 -6 60 32 45 67 -26
139 53 115 126 -17 50 -44 64 -123 62 l-67 -1 0 -143z m126 108 c37 -24 39
-93 4 -112 -47 -25 -90 0 -90 52 0 52 48 85 86 60z"/>
<path d="M1905 425 c-30 -29 -34 -97 -10 -132 28 -40 118 -50 146 -16 17 19
-5 43 -23 25 -25 -25 -98 -7 -98 23 0 12 16 15 75 15 81 0 85 3 65 56 -15 39
-39 53 -88 54 -32 0 -49 -6 -67 -25z m107 -22 c29 -26 21 -33 -37 -33 -41 0
-55 4 -55 15 0 33 62 46 92 18z"/>
<path d="M2110 355 c0 -88 1 -95 20 -95 18 0 20 7 20 68 0 75 9 92 52 92 37 0
52 -36 45 -107 -5 -52 -5 -53 20 -53 l26 0 -5 75 c-6 90 -23 115 -78 115 -20
0 -41 -5 -48 -12 -9 -9 -12 -9 -12 0 0 7 -9 12 -20 12 -19 0 -20 -7 -20 -95z"/>
<path d="M2340 355 c0 -92 1 -95 23 -95 21 0 22 3 22 95 0 92 -1 95 -22 95
-22 0 -23 -3 -23 -95z"/>
<path d="M2456 419 c-41 -48 -31 -122 21 -150 29 -16 82 -15 113 1 21 11 21
13 6 28 -12 13 -18 13 -28 4 -18 -18 -63 -15 -81 6 -10 10 -17 22 -17 25 0 4
34 7 76 7 l77 0 -6 38 c-8 49 -38 72 -92 72 -36 0 -48 -5 -69 -31z m105 -9
c10 -6 19 -17 19 -25 0 -11 -13 -15 -55 -15 -57 0 -66 8 -39 34 18 18 47 20
75 6z"/>
</g>
</svg>
